Coordinates
version=1
nRows=32
nColumns=22
inDegrees=yes

Units are S.I. units (second, meters, Newtons, ...)
If the header above contains a line with 'inDegrees', this indicates whether rotational values are in degrees (yes) or radians (no).

endheader
time	pelvis_tilt	pelvis_list	pelvis_rotation	pelvis_tx	pelvis_ty	pelvis_tz	hip_flexion_r	hip_adduction_r	hip_rotation_r	knee_angle_r	ankle_angle_r	subtalar_angle_r	hip_flexion_l	hip_adduction_l	hip_rotation_l	knee_angle_l	ankle_angle_l	subtalar_angle_l	lumbar_extension	lumbar_bending	lumbar_rotation
      3.80000000	      1.40367736	     -0.86555125	     74.52745180	      0.38665562	      0.91939436	     -0.35992373	     27.92454064	     -2.07972498	      3.57944770	    -12.46856139	     11.00141996	      7.31549024	     -2.27219866	      6.62340396	     21.49637612	    -27.07478451	     19.97745198	    -12.67713135	     -5.23813167	      1.11895713	     -7.25329998
      3.81000000	      1.31349306	     -0.85734812	     74.98064373	      0.39092338	      0.91824575	     -0.36717833	     28.06280916	     -2.08219035	      3.32997321	    -12.94482598	     10.71032625	      6.59560872	     -2.76668239	      6.49774864	     21.71191263	    -27.13620258	     20.07921219	    -12.51828344	     -5.14941989	      1.05753990	     -7.37832885
      3.82000000	      1.20212518	     -0.83887323	     75.44891386	      0.39519678	      0.91721026	     -0.37452559	     28.17989681	     -2.10632833	      3.17153439	    -13.58441218	     10.33141999	      6.18419234	     -3.26950044	      6.39058023	     21.97496619	    -27.19651825	     20.07811885	    -12.39469584	     -5.06571917	      0.97325915	     -7.55788070
      3.83000000	      1.14761145	     -0.82640091	     75.85803509	      0.39964390	      0.91628519	     -0.38196773	     28.26557526	     -2.02009107	      3.17154651	    -14.33703049	      9.76282039	      5.30111052	     -3.76904869	      6.20333395	     22.12505965	    -27.27668232	     20.09827600	    -12.11751810	     -4.98777813	      0.95341363	     -7.65081967
      3.84000000	      1.12090142	     -0.83450096	     76.26759354	      0.40414391	      0.91548793	     -0.38947162	     28.32540002	     -1.88272638	      3.28904922	    -15.13462002	      9.00615385	      4.54523188	     -4.22619022	      5.97911283	     22.28355007	    -27.40776144	     20.02752306	    -11.80004597	     -4.89627377	      0.96985135	     -7.75879914
      3.85000000	      1.14478076	     -0.86954142	     76.64181168	      0.40876519	      0.91482372	     -0.39702587	     28.37464693	     -1.65031329	      3.53707273	    -15.95800227	      8.07829300	      3.78268160	     -4.62801079	      5.69246568	     22.37944943	    -27.60623991	     19.91001792	    -11.39728350	     -4.78883173	      1.04619405	     -7.82998480
      3.86000000	      1.21308621	     -0.93069948	     76.99433851	      0.41346024	      0.91431731	     -0.40461899	     28.42383102	     -1.34120428	      3.86512311	    -16.79097562	      7.00981054	      3.05654159	     -4.96345517	      5.35832932	     22.42739481	    -27.88444592	     19.72362704	    -10.90995870	     -4.66649508	      1.17812639	     -7.88836515
      3.87000000	      1.33272461	     -1.01799295	     77.32113878	      0.41822458	      0.91399215	     -0.41223429	     28.47842709	     -0.95300409	      4.24175109	    -17.62238047	      5.85504089	      2.40427437	     -5.21662813	      4.97837628	     22.41656087	    -28.27076409	     19.44158959	    -10.32311223	     -4.53181602	      1.37270444	     -7.92769336
      3.88000000	      1.50323469	     -1.12817507	     77.62358098	      0.42304100	      0.91386528	     -0.41987238	     28.53121754	     -0.49662278	      4.63304435	    -18.43706280	      4.70307640	      1.86397376	     -5.37707978	      4.56299674	     22.34511858	    -28.78853971	     19.03080521	     -9.62430247	     -4.38703931	      1.62934330	     -7.95930856
      3.89000000	      1.73295574	     -1.25372421	     77.87662642	      0.42792797	      0.91392960	     -0.42754251	     28.59769225	      0.02903143	      4.95387628	    -19.27459891	      3.62199552	      1.54660356	     -5.44290143	      4.10340931	     22.12776484	    -29.44832835	     18.51843486	     -8.88508218	     -4.24030480	      1.95664924	     -7.94642495
      3.90000000	      1.98874824	     -1.36750303	     78.11025634	      0.43279137	      0.91421034	     -0.43523513	     28.63737368	      0.55866650	      5.16761455	    -20.10433074	      2.68251738	      1.35468011	     -5.42031996	      3.65387139	     21.83186674	    -30.27503010	     17.85787269	     -8.02956656	     -4.11694519	      2.31363458	     -7.91764629
      3.91000000	      2.26924763	     -1.46024342	     78.31530486	      0.43764819	      0.91469863	     -0.44295233	     28.64368800	      1.08105914	      5.22281723	    -20.93102270	      1.91651631	      1.30315844	     -5.31086918	      3.20382085	     21.38484341	    -31.26518791	     17.04014348	     -7.13129144	     -4.02439633	      2.69624348	     -7.88389265
      3.92000000	      2.54761556	     -1.51404146	     78.51880626	      0.44241198	      0.91539953	     -0.45066090	     28.57930143	      1.54512043	      5.10605816	    -21.70921530	      1.36266624	      1.32187969	     -5.10803179	      2.79237751	     20.84117990	    -32.44234338	     16.03777865	     -6.08845123	     -3.98019713	      3.06918526	     -7.84318201
      3.93000000	      2.83026577	     -1.52672499	     78.72233073	      0.44711348	      0.91629102	     -0.45834987	     28.43967755	      1.96289549	      4.82924854	    -22.43995761	      1.01403703	      1.37856403	     -4.81687290	      2.38981543	     20.15400315	    -33.78163553	     14.85668100	     -4.99420199	     -3.98443763	      3.43604845	     -7.82572111
      3.94000000	      3.10719014	     -1.49949739	     78.94508209	      0.45170408	      0.91735528	     -0.46596778	     28.20173737	      2.32549984	      4.43407726	    -23.07326709	      0.86006091	      1.42037192	     -4.42157596	      2.00271074	     19.36029076	    -35.28840792	     13.48007308	     -3.83087393	     -4.03909707	      3.78418966	     -7.80919381
      3.95000000	      3.37253896	     -1.43480817	     79.18712027	      0.45621090	      0.91855634	     -0.47347427	     27.86870025	      2.64801136	      3.97753457	    -23.60583351	      0.86713724	      1.40105332	     -3.92369359	      1.62285542	     18.46733573	    -36.93787780	     11.93441003	     -2.62223686	     -4.13900559	      4.09993738	     -7.81101119
      3.96000000	      3.63661071	     -1.35121726	     79.45194925	      0.46063897	      0.91983703	     -0.48082276	     27.46002767	      2.95440482	      3.46910687	    -24.03109911	      0.95703208	      1.29556496	     -3.30557355	      1.22397414	     17.48692634	    -38.72030317	     10.26139191	     -1.45510458	     -4.26699589	      4.39417321	     -7.80330976
      3.97000000	      3.87510228	     -1.25342326	     79.73155612	      0.46497862	      0.92117004	     -0.48800590	     26.97418846	      3.23516612	      2.96050894	    -24.32537567	      1.11632032	      1.09319687	     -2.57308170	      0.82754248	     16.44216668	    -40.60675384	      8.49750044	     -0.32139569	     -4.40894672	      4.64195754	     -7.78385844
      3.98000000	      4.09273875	     -1.15086736	     80.02441511	      0.46926504	      0.92250325	     -0.49499063	     26.44092988	      3.51025894	      2.48503821	    -24.52254793	      1.32045407	      0.79725563	     -1.73490294	      0.42024091	     15.36767068	    -42.57105338	      6.70383686	      0.73555479	     -4.55635344	      4.84168625	     -7.74548535
      3.99000000	      4.28770062	     -1.05104317	     80.31883022	      0.47348505	      0.92379565	     -0.50177486	     25.88123666	      3.78163321	      2.04850481	    -24.63966911	      1.55538236	      0.40116770	     -0.80078406	      0.00590716	     14.28174574	    -44.59395258	      4.94230969	      1.69708093	     -4.69871547	      4.99900966	     -7.67506096
      4.00000000	      4.45550478	     -0.94702994	     80.59840595	      0.47768681	      0.92506015	     -0.50837401	     25.29083352	      4.04974941	      1.66355422	    -24.68118203	      1.80685369	     -0.04752456	      0.19470152	     -0.41763199	     13.17622109	    -46.63244222	      3.24451691	      2.49014840	     -4.83946511	      5.10055542	     -7.56867437
      4.01000000	      4.61853231	     -0.85463127	     80.85028476	      0.48188135	      0.92626057	     -0.51480912	     24.70761329	      4.33568769	      1.30084597	    -24.69038894	      2.04187977	     -0.47047468	      1.24628369	     -0.88449498	     12.03293608	    -48.66480008	      1.66971015	      3.09614702	     -4.96177968	      5.18101207	     -7.39279339
      4.02000000	      4.76293571	     -0.75464035	     81.06409368	      0.48610843	      0.92742888	     -0.52108275	     24.11228862	      4.63067177	      1.01014850	    -24.66983227	      2.31153457	     -0.92210644	      2.30863985	     -1.36819672	     10.88870929	    -50.65462657	      0.24603919	      3.57171490	     -5.08770099	      5.21340940	     -7.16630558
      4.03000000	      4.88554252	     -0.64824621	     81.25450872	      0.49032400	      0.92857398	     -0.52723613	     23.51061286	      4.92244672	      0.78518171	    -24.63587280	      2.63504705	     -1.46354176	      3.36513139	     -1.86228147	      9.76016563	    -52.56701620	     -0.98023246	      3.91895712	     -5.20690067	      5.20556687	     -6.91791328
      4.04000000	      5.02629613	     -0.52511813	     81.40153189	      0.49455557	      0.92972907	     -0.53327602	     22.90437730	      5.24749152	      0.60311956	    -24.61597812	      2.93168611	     -1.79474264	      4.37488583	     -2.40831727	      8.63621795	    -54.37267405	     -1.92901684	      4.13627048	     -5.34433290	      5.20061656	     -6.59246512
      4.05000000	      5.15549914	     -0.38238387	     81.53447867	      0.49874498	      0.93091101	     -0.53921701	     22.27210461	      5.57129334	      0.49948594	    -24.57748988	      3.27480337	     -2.02110285	      5.33187960	     -2.95132910	      7.57464413	    -56.04365218	     -2.60316330	      4.26314192	     -5.49352774	      5.17133551	     -6.28866027
      4.06000000	      5.27870845	     -0.25582412	     81.64420427	      0.50287321	      0.93203627	     -0.54503373	     21.68586112	      5.89509059	      0.41450148	    -24.57163149	      3.61150651	     -2.27362594	      6.27018248	     -3.49970272	      6.55858052	    -57.57597581	     -2.91079262	      4.22972482	     -5.62218141	      5.13543117	     -5.94115371
      4.07000000	      5.37057704	     -0.13674845	     81.74805567	      0.50688580	      0.93312920	     -0.55073301	     21.13421673	      6.18350449	      0.33049607	    -24.58897995	      3.93626148	     -2.67306261	      7.17610526	     -4.00141453	      5.61886615	    -58.93776106	     -2.94555280	      3.93198046	     -5.73474218	      5.06606566	     -5.58762832
      4.08000000	      5.46523451	      0.01596381	     81.84039328	      0.51078352	      0.93428598	     -0.55634243	     20.52922388	      6.47373865	      0.31841177	    -24.56583898	      4.26964062	     -2.77066658	      7.98497275	     -4.48724568	      4.74755575	    -60.10376826	     -2.62519309	      3.68328633	     -5.88587718	      5.00194287	     -5.24930075
      4.09000000	      5.53716175	      0.15396198	     81.92479081	      0.51452005	      0.93539988	     -0.56181205	     19.96033978	      6.73454828	      0.29894567	    -24.55151742	      4.55193994	     -2.93465731	      8.76751853	     -4.92426127	      3.94072625	    -61.08390156	     -2.16744602	      3.17604919	     -6.02457711	      4.92532470	     -4.88749570
      4.10000000	      5.58100198	      0.29605131	     82.02102935	      0.51805804	      0.93650887	     -0.56719304	     19.37351269	      6.95311589	      0.28622920	    -24.49485265	      4.86650344	     -3.07086923	      9.49121537	     -5.29445490	      3.21648874	    -61.85541692	     -1.52421193	      2.64511296	     -6.16151781	      4.83136136	     -4.56129350
      4.11000000	      5.59784881	      0.42998503	     82.13153951	      0.52138247	      0.93758303	     -0.57244854	     18.79121364	      7.13340897	      0.28795006	    -24.40683099	      5.15994986	     -3.16974019	     10.17523547	     -5.59527301	      2.57550565	    -62.42623010	     -0.74248813	      2.17125852	     -6.28992900	      4.72645234	     -4.27457616
